<svg width="20" height="20" viewBox="0 0 20 20" fill="none" xmlns="http://www.w3.org/2000/svg">
<path d="M14.7578 9.40808L10.5912 5.24142C10.5119 5.16555 10.4185 5.10608 10.3162 5.06642C10.1133 4.98307 9.88572 4.98307 9.68284 5.06642C9.58054 5.10608 9.48709 5.16555 9.40784 5.24142L5.24117 9.40808C5.16347 9.48578 5.10184 9.57802 5.05979 9.67954C5.01774 9.78106 4.99609 9.88987 4.99609 9.99975C4.99609 10.2217 5.08425 10.4345 5.24117 10.5914C5.39809 10.7483 5.61092 10.8365 5.83284 10.8365C6.05475 10.8365 6.26758 10.7483 6.4245 10.5914L9.16617 7.84142V14.1664C9.16617 14.3874 9.25397 14.5994 9.41025 14.7557C9.56653 14.912 9.77849 14.9998 9.9995 14.9998C10.2205 14.9998 10.4325 14.912 10.5888 14.7557C10.745 14.5994 10.8328 14.3874 10.8328 14.1664V7.84142L13.5745 10.5914C13.652 10.6695 13.7441 10.7315 13.8457 10.7738C13.9472 10.8161 14.0562 10.8379 14.1662 10.8379C14.2762 10.8379 14.3851 10.8161 14.4867 10.7738C14.5882 10.7315 14.6804 10.6695 14.7578 10.5914C14.8359 10.5139 14.8979 10.4218 14.9402 10.3202C14.9826 10.2187 15.0043 10.1098 15.0043 9.99975C15.0043 9.88974 14.9826 9.78082 14.9402 9.67927C14.8979 9.57772 14.8359 9.48555 14.7578 9.40808Z" fill="white"/>
</svg>
